<svg width="536" height="476" viewBox="0 0 536 476" fill="none" xmlns="http://www.w3.org/2000/svg">
<path d="M261.5 78.6675L261.501 78.6687L261.501 78.6692L265.352 83.1084L269.116 78.5965L269.117 78.5959L269.118 78.5948L269.126 78.5849L269.165 78.5388C269.2 78.4965 269.255 78.4313 269.329 78.3439C269.477 78.1693 269.701 77.9062 269.998 77.5615C270.591 76.8721 271.474 75.8567 272.619 74.5698C274.911 71.9953 278.25 68.338 282.419 64.0332C290.768 55.4113 302.387 44.2504 315.531 33.9977C328.72 23.7104 343.201 14.5311 357.278 9.63534C371.341 4.74451 384.369 4.32493 395.392 10.5079C406.416 16.6909 412.85 28.0269 416.008 42.5773C419.17 57.1426 418.886 74.2854 416.984 90.9032C415.088 107.465 411.621 123.199 408.617 134.818C407.117 140.62 405.737 145.376 404.735 148.674C404.234 150.323 403.828 151.605 403.549 152.471C403.409 152.904 403.301 153.232 403.229 153.449C403.193 153.558 403.166 153.639 403.149 153.691L403.13 153.748L403.125 153.76L403.125 153.762L403.125 153.762L401.237 159.327L407.033 160.299L407.034 160.299L407.035 160.299L407.048 160.301L407.108 160.312C407.163 160.321 407.249 160.336 407.363 160.356C407.591 160.396 407.936 160.457 408.388 160.54C409.294 160.705 410.632 160.958 412.342 161.301C415.761 161.986 420.661 163.034 426.547 164.473C438.336 167.356 454.002 171.793 469.631 178.017C485.313 184.263 500.661 192.194 512.026 201.946C523.377 211.686 530.259 222.785 530.322 235.494C530.386 248.12 523.707 259.295 512.616 269.206C501.514 279.129 486.471 287.326 471.085 293.858C455.752 300.367 440.363 305.103 428.779 308.215C422.995 309.768 418.179 310.912 414.817 311.665C413.137 312.042 411.821 312.32 410.931 312.504C410.486 312.596 410.148 312.664 409.923 312.708C409.811 312.731 409.727 312.747 409.673 312.758L409.614 312.769L409.601 312.771L409.6 312.772L409.599 312.772L403.663 313.904L405.888 319.523L405.888 319.524L405.888 319.525L405.893 319.537L405.916 319.594C405.936 319.647 405.968 319.728 406.01 319.836C406.094 320.053 406.22 320.382 406.384 320.814C406.712 321.679 407.189 322.962 407.782 324.61C408.967 327.909 410.61 332.668 412.428 338.481C416.068 350.124 420.386 365.915 423.149 382.614C425.921 399.369 427.072 416.728 424.59 431.624C422.111 446.503 416.138 458.271 405.23 465.017C394.187 471.846 380.917 471.774 366.44 467.019C351.941 462.256 336.894 452.986 323.129 442.508C309.412 432.066 297.223 420.622 288.446 411.764C284.063 407.341 280.546 403.577 278.129 400.926C276.922 399.601 275.99 398.554 275.364 397.843C275.05 397.488 274.814 397.216 274.657 397.036C274.579 396.946 274.521 396.878 274.483 396.834L274.442 396.787L274.433 396.776L274.432 396.775L274.432 396.774L270.585 392.274L266.793 396.82L266.792 396.82L266.791 396.821L266.783 396.831L266.744 396.877C266.709 396.92 266.654 396.985 266.58 397.072C266.432 397.247 266.208 397.51 265.912 397.855C265.319 398.544 264.436 399.559 263.29 400.846C260.998 403.421 257.659 407.078 253.49 411.383C245.141 420.005 233.523 431.166 220.378 441.418C207.189 451.706 192.709 460.885 178.631 465.781C164.568 470.672 151.54 471.091 140.517 464.908C129.494 458.725 123.059 447.389 119.901 432.839C116.739 418.273 117.023 401.131 118.925 384.513C120.821 367.951 124.288 352.218 127.292 340.598C128.793 334.796 130.172 330.04 131.174 326.742C131.675 325.093 132.081 323.811 132.361 322.945C132.5 322.513 132.608 322.184 132.68 321.967C132.716 321.858 132.743 321.777 132.76 321.725L132.78 321.668L132.784 321.656L132.784 321.654L132.784 321.654L134.672 316.089L128.876 315.117L128.876 315.117L128.874 315.117L128.861 315.115L128.801 315.105L128.687 315.085L128.546 315.06C128.318 315.02 127.974 314.959 127.521 314.876C126.615 314.711 125.277 314.458 123.568 314.116C120.148 313.43 115.248 312.382 109.362 310.943C97.5733 308.06 81.907 303.623 66.2784 297.399C50.5961 291.153 35.2478 283.222 23.883 273.47C12.5324 263.731 5.65038 252.631 5.5867 239.922C5.52345 227.296 12.2024 216.122 23.293 206.21C34.3951 196.288 49.4379 188.09 64.8237 181.558C80.1576 175.049 95.5462 170.313 107.131 167.201C112.914 165.648 117.73 164.504 121.092 163.751C122.772 163.374 124.088 163.096 124.978 162.912C125.423 162.82 125.762 162.752 125.986 162.708C126.098 162.685 126.182 162.669 126.236 162.659L126.295 162.647L126.308 162.645L126.309 162.644L126.31 162.644L132.144 161.531L130.052 155.972L130.052 155.972L130.051 155.97L130.047 155.958L130.026 155.902C130.007 155.85 129.977 155.77 129.937 155.663C129.858 155.448 129.74 155.124 129.586 154.696C129.279 153.841 128.831 152.573 128.276 150.943C127.166 147.681 125.631 142.976 123.941 137.23C120.557 125.723 116.576 110.122 114.136 93.6429C111.688 77.1083 110.841 59.9979 113.519 45.3511C116.195 30.7193 122.249 19.1939 133.056 12.6655C143.934 6.09374 156.994 6.17965 171.223 10.7878C185.469 15.4017 200.239 24.364 213.745 34.49C227.205 44.5812 239.159 55.6367 247.765 64.1936C252.062 68.4659 255.51 72.101 257.879 74.6615C259.062 75.9414 259.975 76.9519 260.589 77.6382C260.896 77.9814 261.127 78.2434 261.281 78.4174C261.357 78.5044 261.414 78.5695 261.451 78.6116L261.491 78.6576L261.5 78.6675Z" fill="#AEC3B0" stroke="#EFF6E0" stroke-width="10"/>
</svg>
